<svg width="177.000000" height="43.000000" viewBox="0 0 177 43" fill="none" xmlns="http://www.w3.org/2000/svg" xmlns:xlink="http://www.w3.org/1999/xlink">
	<desc>
			Created with Pixso.
	</desc>
	<defs>
		<clipPath id="clip203_1813">
			<rect id="books-stack-of-three 2" width="42.000000" height="42.000000" transform="translate(0.000000 0.000122)" fill="white" fill-opacity="0"/>
		</clipPath>
	</defs>
	<path id="LIBRARY" d="M51.1 8.59L47.79 8.59L47.79 18.39L55.52 18.39L55.52 15.82L51.1 15.82L51.1 8.59ZM59.73 8.59L56.43 8.59L56.43 18.39L59.73 18.39L59.73 8.59ZM70.51 14.2Q70.04 13.59 69.17 13.26Q69.83 12.93 70.17 12.4Q70.18 12.39 70.19 12.38Q70.29 12.21 70.36 12.03Q70.53 11.63 70.53 11.15Q70.53 10.63 70.33 10.21Q70.09 9.68 69.53 9.29Q68.53 8.59 66.57 8.59L61.33 8.59L61.33 18.39L66.85 18.39Q68.86 18.39 69.93 17.68Q70.45 17.33 70.72 16.84Q70.99 16.34 70.99 15.68Q70.99 15.04 70.73 14.54Q70.64 14.36 70.51 14.2ZM75.46 15.92L76.35 15.92L78.02 18.39L84.88 18.39L85.54 16.68L89.26 16.68L89.92 18.39L93.33 18.39L89.05 8.59L85.8 8.59L81.53 18.36L79.49 15.36Q80.22 14.99 80.67 14.4Q80.77 14.26 80.86 14.12Q80.89 14.07 80.92 14.02Q81.34 13.27 81.34 12.28Q81.34 11.34 80.95 10.6Q80.88 10.46 80.79 10.32Q80.67 10.15 80.54 9.99Q80.03 9.39 79.24 9.04Q78.23 8.59 76.87 8.59L72.15 8.59L72.15 18.39L75.46 18.39L75.46 15.92ZM97.17 15.92L98.07 15.92L99.73 18.39L103.26 18.39L101.2 15.36Q101.93 14.99 102.38 14.4Q102.49 14.26 102.57 14.12Q102.61 14.07 102.63 14.02Q103.05 13.27 103.05 12.28Q103.05 11.34 102.67 10.6Q102.59 10.46 102.5 10.32Q102.39 10.15 102.25 9.99Q101.75 9.39 100.95 9.04Q99.94 8.59 98.59 8.59L93.87 8.59L93.87 18.39L97.17 18.39L97.17 15.92ZM109.98 18.39L109.98 14.83L113.68 8.59L110.49 8.59L108.47 11.98L106.47 8.59L102.98 8.59L106.68 14.79L106.68 18.39L109.98 18.39ZM64.58 12.36L64.58 10.9L66.12 10.9Q66.86 10.9 67.09 11.24Q67.2 11.4 67.2 11.63Q67.2 11.85 67.09 12.01Q66.86 12.36 66.12 12.36L64.58 12.36ZM77.81 11.59Q78.01 11.86 78.01 12.28Q78.01 12.7 77.81 12.98Q77.75 13.06 77.67 13.13Q77.33 13.43 76.66 13.43L75.46 13.43L75.46 11.13L76.66 11.13Q77.33 11.13 77.67 11.44Q77.75 11.51 77.81 11.59ZM99.52 11.59Q99.72 11.86 99.72 12.28Q99.72 12.7 99.52 12.98Q99.46 13.06 99.38 13.13Q99.05 13.43 98.37 13.43L97.17 13.43L97.17 11.13L98.37 11.13Q99.05 11.13 99.38 11.44Q99.46 11.51 99.52 11.59ZM87.4 11.84L88.35 14.3L86.45 14.3L87.4 11.84ZM67.54 15.73Q67.3 16.08 66.57 16.08L64.58 16.08L64.58 14.54L66.57 14.54Q67.3 14.54 67.54 14.88Q67.66 15.05 67.66 15.31Q67.66 15.56 67.54 15.73Z" fill="#720418" fill-opacity="1.000000" fill-rule="evenodd"/>
	<path id="book store" d="M56.2 25.77Q55.56 25.5 54.81 25.5Q54.02 25.5 53.39 25.8Q53.34 25.82 53.3 25.84Q53.09 25.95 52.9 26.1Q52.49 26.4 52.2 26.85L52.2 22.74L51.28 22.74L51.28 32.39L52.17 32.39L52.17 31.04Q52.43 31.47 52.8 31.78Q53.02 31.96 53.26 32.09Q53.3 32.11 53.35 32.13Q54 32.45 54.81 32.45Q55.55 32.45 56.19 32.19Q56.37 32.11 56.55 32.01Q56.9 31.81 57.19 31.53Q57.53 31.21 57.77 30.78Q57.81 30.7 57.85 30.62Q58.21 29.88 58.21 28.97Q58.21 28.03 57.83 27.29Q57.8 27.23 57.77 27.16Q57.52 26.73 57.18 26.4Q56.9 26.13 56.55 25.94Q56.38 25.84 56.2 25.77ZM77.32 30.44L78.93 28.96L81.69 32.39L82.82 32.39L79.62 28.34L82.55 25.55L81.4 25.55L77.32 29.28L77.32 22.74L76.4 22.74L76.4 32.39L77.32 32.39L77.32 30.44ZM96.93 32.33Q97.31 32.21 97.57 31.97L97.25 31.31Q97.05 31.48 96.79 31.57Q96.69 31.6 96.58 31.63Q96.41 31.66 96.24 31.66Q95.73 31.66 95.43 31.41Q95.39 31.38 95.36 31.34Q95.05 31.02 95.05 30.41L95.05 26.33L97.13 26.33L97.13 25.55L95.05 25.55L95.05 24.05L94.13 24.05L94.13 25.55L92.91 25.55L92.91 26.33L94.13 26.33L94.13 30.46Q94.13 31.32 94.55 31.83Q94.6 31.88 94.65 31.93Q94.69 31.98 94.74 32.02Q95.25 32.45 96.13 32.45Q96.55 32.45 96.93 32.33L96.93 32.33ZM61.43 32.16Q62.1 32.45 62.89 32.45Q63.68 32.45 64.35 32.16Q64.52 32.09 64.67 32Q65.07 31.78 65.38 31.47Q65.69 31.16 65.91 30.76Q65.98 30.64 66.05 30.5Q66.36 29.81 66.36 28.97Q66.36 28.11 66.03 27.4Q65.98 27.29 65.91 27.18Q65.68 26.77 65.36 26.46Q65.06 26.16 64.67 25.94Q64.52 25.86 64.37 25.79Q63.69 25.5 62.89 25.5Q62.09 25.5 61.41 25.79Q61.26 25.86 61.11 25.94Q60.74 26.15 60.44 26.43Q60.1 26.76 59.86 27.18Q59.79 27.3 59.73 27.42Q59.41 28.12 59.41 28.97Q59.41 29.8 59.72 30.49Q59.78 30.63 59.86 30.76Q60.1 31.17 60.42 31.49Q60.73 31.79 61.11 32Q61.27 32.09 61.43 32.16ZM69.58 32.16Q70.25 32.45 71.04 32.45Q71.83 32.45 72.5 32.16Q72.67 32.09 72.82 32Q73.22 31.78 73.53 31.47Q73.84 31.16 74.06 30.76Q74.14 30.64 74.2 30.5Q74.51 29.81 74.51 28.97Q74.51 28.11 74.18 27.4Q74.13 27.29 74.06 27.18Q73.83 26.77 73.51 26.46Q73.21 26.16 72.82 25.94Q72.67 25.86 72.52 25.79Q71.84 25.5 71.04 25.5Q70.24 25.5 69.56 25.79Q69.41 25.86 69.26 25.94Q68.89 26.15 68.59 26.43Q68.25 26.76 68.01 27.18Q67.94 27.3 67.88 27.42Q67.56 28.12 67.56 28.97Q67.56 29.8 67.87 30.49Q67.93 30.63 68.01 30.76Q68.25 31.17 68.57 31.49Q68.88 31.79 69.26 32Q69.42 32.09 69.58 32.16ZM87.94 32.24Q88.67 32.45 89.45 32.45Q90.78 32.45 91.52 31.93Q91.91 31.65 92.1 31.28Q92.27 30.93 92.27 30.5Q92.27 29.89 91.97 29.52Q91.95 29.49 91.92 29.46Q91.76 29.29 91.56 29.16Q91.34 29.01 91.07 28.93Q90.58 28.77 89.76 28.62Q89.1 28.5 88.72 28.39Q88.35 28.28 88.09 28.05Q88.01 27.97 87.96 27.88Q87.84 27.69 87.84 27.42Q87.84 27.21 87.91 27.04Q88.02 26.79 88.29 26.61Q88.74 26.29 89.62 26.29Q90.62 26.29 91.38 26.72Q91.51 26.79 91.63 26.87L92.04 26.14Q91.61 25.85 90.94 25.68Q90.28 25.5 89.62 25.5Q88.35 25.5 87.63 26.04Q87.23 26.35 87.05 26.75Q86.91 27.07 86.91 27.45Q86.91 28.1 87.23 28.48Q87.25 28.51 87.27 28.53Q87.44 28.71 87.65 28.85Q87.87 28.99 88.14 29.08Q88.64 29.24 89.48 29.4Q90.1 29.5 90.48 29.61Q90.85 29.72 91.1 29.94Q91.17 30 91.23 30.08Q91.35 30.26 91.35 30.53Q91.35 30.79 91.24 30.99Q91.13 31.21 90.9 31.36Q90.45 31.65 89.52 31.65Q88.98 31.65 88.47 31.52Q88.31 31.48 88.16 31.43Q87.51 31.22 87.09 30.88L86.67 31.61Q87.1 31.97 87.86 32.21Q87.9 32.23 87.94 32.24ZM100.34 32.16Q101.01 32.45 101.8 32.45Q102.59 32.45 103.26 32.16Q103.42 32.09 103.58 32Q103.98 31.78 104.29 31.47Q104.6 31.16 104.82 30.76Q104.89 30.64 104.95 30.5Q105.27 29.81 105.27 28.97Q105.27 28.11 104.94 27.4Q104.89 27.29 104.82 27.18Q104.59 26.77 104.27 26.46Q103.97 26.16 103.58 25.94Q103.43 25.86 103.28 25.79Q102.6 25.5 101.8 25.5Q101 25.5 100.32 25.79Q100.17 25.86 100.02 25.94Q99.65 26.15 99.35 26.43Q99.01 26.76 98.77 27.18Q98.7 27.3 98.64 27.42Q98.31 28.12 98.31 28.97Q98.31 29.8 98.63 30.49Q98.69 30.63 98.77 30.76Q99.01 31.17 99.33 31.49Q99.64 31.79 100.02 32Q100.18 32.09 100.34 32.16ZM108.54 26.19Q108.23 26.48 108.04 26.89L108.04 25.55L107.16 25.55L107.16 32.39L108.08 32.39L108.08 28.9Q108.08 27.74 108.66 27.08Q108.67 27.06 108.69 27.05Q108.83 26.89 109 26.77Q109.55 26.38 110.38 26.38L110.6 26.4L110.6 25.5Q109.65 25.5 109.01 25.85Q108.75 25.99 108.54 26.19ZM112.43 29.26L118.15 29.26L118.17 28.97Q118.17 27.97 117.75 27.2Q117.75 27.19 117.74 27.17Q117.49 26.71 117.13 26.37Q116.87 26.13 116.55 25.94Q116.4 25.85 116.23 25.78Q115.6 25.5 114.85 25.5Q114.13 25.5 113.51 25.76Q113.32 25.84 113.14 25.94Q112.85 26.11 112.6 26.34Q112.21 26.69 111.94 27.18Q111.91 27.25 111.87 27.32Q111.51 28.06 111.51 28.97Q111.51 29.8 111.82 30.49Q111.89 30.63 111.96 30.76Q112.17 31.12 112.45 31.41Q112.79 31.76 113.23 32Q113.25 32.01 113.26 32.02Q114.06 32.45 115.1 32.45Q115.92 32.45 116.6 32.17Q117.07 31.97 117.42 31.66Q117.59 31.51 117.74 31.33L117.22 30.74Q116.99 30.99 116.72 31.18Q116.52 31.31 116.3 31.41Q115.76 31.63 115.13 31.63Q114.27 31.63 113.64 31.26Q113.43 31.14 113.25 30.98Q112.98 30.74 112.8 30.45Q112.48 29.93 112.43 29.26ZM113.74 26.54Q114.23 26.29 114.85 26.29Q115.5 26.29 116.01 26.56Q116.29 26.7 116.52 26.92Q116.72 27.11 116.87 27.33Q117.22 27.85 117.28 28.57L112.43 28.57Q112.5 27.85 112.85 27.33Q113 27.11 113.2 26.92Q113.45 26.69 113.74 26.54ZM55.72 31.45Q55.27 31.63 54.74 31.63Q54.15 31.63 53.65 31.41Q53.54 31.36 53.43 31.3Q53.23 31.19 53.05 31.03Q52.74 30.76 52.52 30.36Q52.51 30.34 52.49 30.31Q52.19 29.72 52.19 28.97Q52.19 28.21 52.5 27.62Q52.51 27.6 52.52 27.58Q52.74 27.18 53.06 26.9Q53.23 26.75 53.43 26.64Q53.55 26.57 53.67 26.52Q54.16 26.3 54.74 26.3Q55.26 26.3 55.71 26.48Q55.88 26.55 56.04 26.64Q56.27 26.77 56.46 26.94Q56.76 27.21 56.96 27.58Q56.97 27.61 56.99 27.64Q57.29 28.23 57.29 28.97Q57.29 29.71 56.99 30.29Q56.97 30.33 56.96 30.36Q56.76 30.72 56.47 30.99Q56.28 31.17 56.04 31.3Q55.89 31.39 55.72 31.45ZM64.01 31.4Q63.5 31.63 62.89 31.63Q62.3 31.63 61.8 31.41Q61.69 31.36 61.58 31.3Q61.38 31.19 61.2 31.03Q60.89 30.76 60.67 30.36Q60.66 30.34 60.64 30.31Q60.34 29.72 60.34 28.97Q60.34 28.21 60.65 27.62Q60.66 27.6 60.67 27.58Q60.89 27.18 61.21 26.9Q61.38 26.75 61.58 26.64Q61.7 26.57 61.82 26.52Q62.31 26.3 62.89 26.3Q63.5 26.3 64 26.53Q64.1 26.58 64.2 26.64Q64.41 26.76 64.59 26.92Q64.9 27.19 65.1 27.58Q65.11 27.59 65.11 27.6Q65.43 28.2 65.43 28.97Q65.43 29.73 65.12 30.33Q65.11 30.35 65.1 30.36Q64.9 30.74 64.6 31.01Q64.42 31.18 64.2 31.3Q64.11 31.35 64.01 31.4ZM72.16 31.4Q71.66 31.63 71.04 31.63Q70.45 31.63 69.95 31.41Q69.84 31.36 69.73 31.3Q69.53 31.19 69.35 31.03Q69.04 30.76 68.82 30.36Q68.81 30.34 68.8 30.31Q68.49 29.72 68.49 28.97Q68.49 28.21 68.8 27.62Q68.81 27.6 68.82 27.58Q69.04 27.18 69.37 26.9Q69.54 26.75 69.73 26.64Q69.85 26.57 69.97 26.52Q70.46 26.3 71.04 26.3Q71.65 26.3 72.15 26.53Q72.25 26.58 72.35 26.64Q72.56 26.76 72.74 26.92Q73.05 27.19 73.25 27.58Q73.26 27.59 73.26 27.6Q73.58 28.2 73.58 28.97Q73.58 29.73 73.27 30.33Q73.26 30.35 73.25 30.36Q73.05 30.74 72.75 31.01Q72.57 31.18 72.35 31.3Q72.26 31.35 72.16 31.4ZM102.92 31.4Q102.41 31.63 101.8 31.63Q101.21 31.63 100.71 31.41Q100.6 31.36 100.49 31.3Q100.29 31.19 100.11 31.03Q99.8 30.76 99.58 30.36Q99.57 30.34 99.55 30.31Q99.25 29.72 99.25 28.97Q99.25 28.21 99.56 27.62Q99.57 27.6 99.58 27.58Q99.8 27.18 100.12 26.9Q100.29 26.75 100.49 26.64Q100.61 26.57 100.73 26.52Q101.22 26.3 101.8 26.3Q102.4 26.3 102.9 26.53Q103.01 26.58 103.11 26.64Q103.32 26.76 103.5 26.92Q103.81 27.19 104.01 27.58Q104.01 27.59 104.02 27.6Q104.34 28.2 104.34 28.97Q104.34 29.73 104.03 30.33Q104.02 30.35 104.01 30.36Q103.81 30.74 103.51 31.01Q103.33 31.18 103.11 31.3Q103.02 31.35 102.92 31.4Z" fill="#241400" fill-opacity="1.000000" fill-rule="evenodd"/>
	<line id="Line 1" x1="48.000000" y1="20.892822" x2="175.000000" y2="20.892822" stroke="#000000" stroke-opacity="0.590000" stroke-width="1.000000"/>
	<rect id="books-stack-of-three 2" width="42.000000" height="42.000000" transform="translate(0.000000 0.000122)" fill="#FFFFFF" fill-opacity="0"/>
	<g clip-path="url(#clip203_1813)">
		<path id="Vector" d="M39 14.9C38.83 13.62 38.81 11.42 39.99 10.69C40.01 10.67 40.03 10.65 40.05 10.64C41.02 10.33 41.69 9.89 41.16 9.3L26.86 5L3.7 8.21C3.7 8.21 1.05 8.59 1.29 12.71C1.41 14.96 2.12 16.06 2.73 16.6L0.83 17.17C0.3 17.76 0.98 18.19 1.94 18.5C1.96 18.52 1.98 18.54 2 18.55C3.19 19.29 3.16 21.49 2.99 22.77C-1.27 23.98 0.26 24.37 0.26 24.37L1.2 24.6C0.54 25.19 -0.11 26.32 0.01 28.45C0.25 32.57 2.43 32.85 2.43 32.85L17.58 37.78L40.45 32.24C40.45 32.24 41.98 31.85 37.72 30.64C37.55 29.36 37.53 27.16 38.72 26.42C38.74 26.41 38.75 26.39 38.77 26.37C39.74 26.06 40.41 25.63 39.89 25.04L38.89 24.74C39.55 24.34 40.55 23.3 40.71 20.58C40.81 18.72 40.33 17.62 39.76 16.98L41.73 16.5C41.73 16.5 43.26 16.11 39 14.9ZM19.87 14.85L23.71 14.06L36.71 11.38L38.65 10.99C38.03 12.12 38.06 13.67 38.16 14.67C38.18 14.89 38.21 15.1 38.23 15.25L36.11 15.78L19.7 19.86L19.87 14.85ZM3.34 18.86L5.28 19.25L17.76 21.82L18.85 22.04L22.12 22.72L22.29 27.73L5.42 23.54L3.76 23.12C3.79 22.97 3.81 22.76 3.83 22.53C3.94 21.54 3.96 19.99 3.34 18.86ZM2.59 12.52C2.57 11.42 2.76 10.63 3.16 10.22C3.41 9.97 3.7 9.91 3.91 9.91C4.02 9.91 4.09 9.93 4.1 9.93L14.08 13.18L19.05 14.8L18.89 19.85L4.93 15.94L4.19 15.73C4.16 15.73 4.12 15.72 4.1 15.72C4.04 15.71 2.66 15.59 2.59 12.52ZM17.62 35.59L2.91 31.47C2.89 31.46 2.85 31.46 2.82 31.46C2.76 31.45 1.38 31.33 1.31 28.25C1.29 27.16 1.49 26.37 1.88 25.96C2.13 25.7 2.43 25.65 2.63 25.65C2.74 25.65 2.82 25.67 2.82 25.67L17.78 30.54L17.62 35.59ZM36.88 30.4C36.9 30.63 36.93 30.83 36.96 30.99L18.43 35.6L18.59 30.58L22.55 29.77L23.14 29.91L25.33 29.2L35.44 27.12L37.37 26.72C36.75 27.86 36.78 29.41 36.88 30.4ZM37.9 23.59C37.87 23.59 37.83 23.59 37.8 23.6L36.41 23.99L23.1 27.72L22.94 22.67L27.3 21.25L37.87 17.8C37.87 17.8 38.43 17.68 38.84 18.09C39.23 18.5 39.43 19.29 39.4 20.38C39.33 23.46 37.95 23.58 37.9 23.59Z" fill="#720418" fill-opacity="1.000000" fill-rule="nonzero"/>
	</g>
</svg>
