<svg width="90.000000" height="38.000000" viewBox="0 0 90 38" fill="none" xmlns="http://www.w3.org/2000/svg" xmlns:xlink="http://www.w3.org/1999/xlink">
	<desc>
			Created with Pixso.
	</desc>
	<defs>
		<clipPath id="clip203_2608">
			<rect id="akar-icons:heart" width="38.000000" height="38.000000" fill="white" fill-opacity="0"/>
		</clipPath>
	</defs>
	<path id="Join us" d="M60.75 14.27Q60.67 14.43 60.67 14.64Q60.67 14.85 60.76 15.01Q60.8 15.09 60.86 15.15Q60.88 15.17 60.9 15.19Q61.08 15.35 61.41 15.35Q61.74 15.35 61.93 15.19Q61.95 15.17 61.97 15.15Q62.04 15.08 62.08 15Q62.16 14.84 62.16 14.64Q62.16 14.44 62.09 14.28Q62.04 14.19 61.97 14.12Q61.95 14.09 61.92 14.06Q61.73 13.91 61.41 13.91Q61.1 13.91 60.91 14.06Q60.88 14.09 60.86 14.12Q60.79 14.19 60.75 14.27ZM50.64 14.04L49.32 14.04L49.32 21.11Q49.31 21.95 48.9 22.45Q48.86 22.5 48.81 22.55Q48.66 22.7 48.49 22.8Q48.07 23.06 47.5 23.06Q46.68 23.06 46.21 22.65Q46.18 22.62 46.14 22.58Q46.09 22.53 46.04 22.47Q45.67 22.01 45.67 21.25L44.36 21.25Q44.36 22.33 44.87 23.03Q45.01 23.21 45.18 23.37Q45.21 23.4 45.24 23.42Q46.06 24.13 47.5 24.13Q48.69 24.13 49.48 23.57Q49.64 23.46 49.78 23.33Q49.96 23.16 50.1 22.96Q50.64 22.22 50.64 21.09L50.64 14.04ZM52.77 18.27Q52.34 19.14 52.34 20.23L52.34 20.32Q52.34 21.83 53.06 22.82Q53.16 22.96 53.27 23.09Q53.64 23.5 54.1 23.75Q54.8 24.13 55.71 24.13Q56.52 24.13 57.18 23.82Q57.33 23.74 57.48 23.65Q57.74 23.49 57.96 23.28Q58.39 22.88 58.66 22.32Q59.08 21.46 59.08 20.38L59.08 20.29Q59.08 18.75 58.34 17.75Q58.24 17.62 58.14 17.51Q57.78 17.1 57.33 16.85Q56.62 16.46 55.7 16.46Q54.93 16.46 54.3 16.75Q54.12 16.83 53.96 16.93Q53.77 17.05 53.59 17.2Q53.09 17.63 52.77 18.27ZM65.3 17.53L65.25 16.6L64.06 16.6L64.06 24L65.32 24L65.32 18.72Q65.5 18.37 65.76 18.1Q65.89 17.97 66.05 17.86Q66.18 17.77 66.33 17.7Q66.69 17.54 67.13 17.54Q67.88 17.54 68.24 17.91Q68.24 17.91 68.25 17.92Q68.6 18.3 68.61 19.1L68.61 24L69.88 24L69.88 19.11Q69.86 17.62 69.12 16.97Q68.54 16.46 67.51 16.46Q66.82 16.46 66.26 16.73Q65.72 17 65.3 17.53ZM87.14 21.51Q87.27 21.73 87.27 22.03Q87.27 22.24 87.2 22.4Q87.09 22.64 86.84 22.81Q86.41 23.1 85.69 23.1Q84.91 23.1 84.43 22.73Q84.23 22.57 84.11 22.37Q83.94 22.09 83.92 21.72L82.66 21.72Q82.66 21.97 82.72 22.21Q82.81 22.59 83.05 22.94Q83.11 23.04 83.19 23.13Q83.55 23.56 84.12 23.82Q84.8 24.13 85.69 24.13Q86.95 24.13 87.75 23.53Q88.14 23.23 88.34 22.83Q88.54 22.44 88.54 21.94Q88.54 21.38 88.28 20.98Q88.27 20.96 88.25 20.94Q87.97 20.52 87.38 20.23Q86.79 19.93 85.85 19.72Q84.9 19.51 84.54 19.28Q84.38 19.18 84.29 19.03Q84.18 18.85 84.18 18.59Q84.18 18.35 84.27 18.16Q84.36 17.96 84.57 17.8Q84.96 17.5 85.65 17.5Q86.18 17.5 86.56 17.74Q86.67 17.8 86.76 17.88Q87.05 18.12 87.15 18.43Q87.2 18.59 87.2 18.77L88.47 18.77Q88.47 18.27 88.28 17.86Q88.08 17.44 87.69 17.11Q87.63 17.06 87.56 17.02Q86.81 16.46 85.65 16.46Q84.59 16.46 83.86 16.95Q83.77 17.02 83.68 17.09Q83.2 17.48 83.02 17.98Q82.91 18.28 82.91 18.63Q82.91 19.1 83.11 19.46Q83.14 19.52 83.18 19.57Q83.45 19.97 84.02 20.26Q84.58 20.54 85.54 20.75Q86.5 20.95 86.89 21.24Q87.05 21.36 87.14 21.51ZM60.77 24L62.04 24L62.04 16.6L60.77 16.6L60.77 24ZM79.5 23.57Q79.67 23.44 79.82 23.26L79.84 24L81.05 24L81.05 16.6L79.78 16.6L79.78 21.98Q79.62 22.34 79.35 22.58Q78.82 23.06 77.85 23.06Q77.31 23.06 76.98 22.79Q76.49 22.39 76.49 21.38L76.49 16.6L75.22 16.6L75.22 21.41Q75.23 22.76 75.85 23.44Q75.94 23.55 76.05 23.64Q76.65 24.13 77.65 24.13Q78.79 24.13 79.5 23.57ZM54.18 22.35Q53.61 21.61 53.61 20.38Q53.61 18.99 54.19 18.25Q54.48 17.87 54.86 17.68Q55.24 17.5 55.7 17.5Q56.18 17.5 56.57 17.7Q56.95 17.88 57.23 18.26Q57.81 19.01 57.81 20.23Q57.81 21.59 57.24 22.34Q56.97 22.7 56.61 22.89Q56.22 23.1 55.71 23.1Q55.21 23.1 54.81 22.89Q54.46 22.71 54.18 22.35Z" fill="#241400" fill-opacity="1.000000" fill-rule="evenodd"/>
	<rect id="akar-icons:heart" width="38.000000" height="38.000000" fill="#FFFFFF" fill-opacity="0"/>
	<g clip-path="url(#clip203_2608)">
		<path id="Combined Shape" d="M35.74 26.24C35.74 29.72 30.96 30.13 27.37 30.13L27.11 30.13C24.82 30.12 19 29.98 19 26.22C19 22.81 23.58 22.35 27.14 22.33L27.62 22.33C29.91 22.34 35.74 22.48 35.74 26.24ZM27.37 23.92C22.86 23.92 20.58 24.69 20.58 26.22C20.58 27.76 22.86 28.54 27.37 28.54C31.87 28.54 34.15 27.77 34.15 26.24C34.15 24.7 31.87 23.92 27.37 23.92ZM27.37 9.13C30.46 9.13 32.98 11.64 32.98 14.74C32.98 17.83 30.46 20.35 27.37 20.35L27.33 20.35C24.24 20.34 21.74 17.82 21.75 14.73C21.75 11.64 24.27 9.13 27.37 9.13ZM27.37 10.64C25.1 10.64 23.26 12.48 23.26 14.74C23.25 16.99 25.08 18.83 27.34 18.84L27.37 19.6L27.37 18.84C29.63 18.84 31.47 17 31.47 14.74C31.47 12.48 29.63 10.64 27.37 10.64Z" fill="#000000" fill-opacity="1.000000" fill-rule="evenodd"/>
	</g>
</svg>
