<svg width="287.000000" height="68.000000" viewBox="0 0 287 68" fill="none" xmlns="http://www.w3.org/2000/svg" xmlns:xlink="http://www.w3.org/1999/xlink">
	<desc>
			Created with Pixso.
	</desc>
	<defs>
		<clipPath id="clip6_286">
			<rect id="books-stack-of-three 2" width="68.000000" height="68.000000" fill="white" fill-opacity="0"/>
		</clipPath>
	</defs>
	<path id="LIBRARY" d="M80.19 16.88L76.89 16.88L76.89 26.68L84.61 26.68L84.61 24.11L80.19 24.11L80.19 16.88ZM88.83 16.88L85.52 16.88L85.52 26.68L88.83 26.68L88.83 16.88ZM99.61 22.49Q99.13 21.88 98.27 21.55Q98.93 21.23 99.27 20.69Q99.27 20.68 99.28 20.67Q99.39 20.51 99.46 20.32Q99.63 19.92 99.63 19.44Q99.63 18.92 99.43 18.5Q99.18 17.97 98.62 17.58Q97.62 16.88 95.66 16.88L90.42 16.88L90.42 26.68L95.94 26.68Q97.96 26.68 99.02 25.97Q99.55 25.62 99.81 25.13Q100.09 24.63 100.09 23.97Q100.09 23.33 99.82 22.83Q99.73 22.65 99.61 22.49ZM104.55 24.21L105.45 24.21L107.12 26.68L113.97 26.68L114.63 24.97L118.36 24.97L119.02 26.68L122.43 26.68L118.15 16.88L114.9 16.88L110.63 26.65L108.59 23.65Q109.32 23.28 109.77 22.69Q109.87 22.55 109.96 22.41Q109.99 22.36 110.01 22.31Q110.43 21.56 110.43 20.57Q110.43 19.63 110.05 18.89Q109.97 18.75 109.88 18.62Q109.77 18.44 109.64 18.28Q109.13 17.68 108.33 17.33Q107.32 16.88 105.97 16.88L101.25 16.88L101.25 26.68L104.55 26.68L104.55 24.21ZM126.27 24.21L127.16 24.21L128.83 26.68L132.36 26.68L130.3 23.65Q131.03 23.28 131.48 22.69Q131.58 22.55 131.67 22.41Q131.7 22.36 131.73 22.31Q132.14 21.56 132.14 20.57Q132.14 19.63 131.76 18.89Q131.69 18.75 131.6 18.62Q131.48 18.44 131.35 18.28Q130.84 17.68 130.05 17.33Q129.04 16.88 127.68 16.88L122.96 16.88L122.96 26.68L126.27 26.68L126.27 24.21ZM139.08 26.68L139.08 23.12L142.77 16.88L139.58 16.88L137.56 20.27L135.56 16.88L132.08 16.88L135.77 23.08L135.77 26.68L139.08 26.68ZM93.68 20.65L93.68 19.19L95.21 19.19Q95.96 19.19 96.19 19.53Q96.29 19.69 96.29 19.92Q96.29 20.15 96.19 20.3Q95.96 20.65 95.21 20.65L93.68 20.65ZM106.9 19.88Q107.1 20.15 107.1 20.57Q107.1 20.99 106.9 21.27Q106.84 21.35 106.76 21.42Q106.43 21.72 105.76 21.72L104.55 21.72L104.55 19.43L105.76 19.43Q106.43 19.43 106.76 19.73Q106.84 19.8 106.9 19.88ZM128.62 19.88Q128.82 20.15 128.82 20.57Q128.82 20.99 128.62 21.27Q128.56 21.35 128.48 21.42Q128.14 21.72 127.47 21.72L126.27 21.72L126.27 19.43L127.47 19.43Q128.14 19.43 128.48 19.73Q128.56 19.8 128.62 19.88ZM116.49 20.13L117.45 22.59L115.54 22.59L116.49 20.13ZM96.64 24.02Q96.39 24.37 95.66 24.37L93.68 24.37L93.68 22.83L95.66 22.83Q96.39 22.83 96.64 23.17Q96.75 23.34 96.75 23.6Q96.75 23.85 96.64 24.02Z" fill="#FFFFFF" fill-opacity="1.000000" fill-rule="evenodd"/>
	<path id="BOOK STORE" d="M94.2 49.35Q95.12 49.73 96.21 49.73Q97.35 49.73 98.3 49.31Q98.48 49.23 98.65 49.14Q99.22 48.82 99.66 48.38Q100.06 47.98 100.36 47.48Q100.52 47.19 100.65 46.89Q100.98 46.07 100.98 45.1Q100.98 44.15 100.65 43.34Q100.53 43.02 100.36 42.73Q100.06 42.23 99.66 41.83Q99.21 41.39 98.65 41.08Q98.47 40.98 98.28 40.9Q97.34 40.48 96.21 40.48Q95.13 40.48 94.22 40.86Q93.98 40.96 93.76 41.08Q93.11 41.44 92.63 41.95Q92.3 42.3 92.04 42.74Q91.89 42.99 91.78 43.27Q91.43 44.11 91.43 45.1Q91.43 46.11 91.79 46.96Q91.9 47.22 92.04 47.47Q92.29 47.9 92.62 48.25Q93.11 48.77 93.76 49.13Q93.98 49.25 94.2 49.35ZM105.11 49.35Q106.03 49.73 107.12 49.73Q108.26 49.73 109.21 49.31Q109.38 49.23 109.55 49.14Q110.13 48.82 110.57 48.38Q110.97 47.98 111.26 47.48Q111.43 47.19 111.55 46.89Q111.89 46.07 111.89 45.1Q111.89 44.15 111.56 43.34Q111.44 43.02 111.26 42.73Q110.97 42.23 110.56 41.83Q110.12 41.39 109.55 41.08Q109.38 40.98 109.19 40.9Q108.25 40.48 107.12 40.48Q106.04 40.48 105.13 40.86Q104.89 40.96 104.67 41.08Q104.02 41.44 103.54 41.95Q103.2 42.3 102.95 42.74Q102.8 42.99 102.69 43.27Q102.33 44.11 102.33 45.1Q102.33 46.11 102.69 46.96Q102.8 47.22 102.95 47.47Q103.2 47.9 103.53 48.25Q104.01 48.77 104.67 49.13Q104.88 49.25 105.11 49.35ZM127.73 49.55Q128.44 49.73 129.2 49.73Q130.32 49.73 131.09 49.4Q131.86 49.07 132.23 48.51Q132.4 48.25 132.49 47.96Q132.6 47.62 132.6 47.25Q132.6 46.47 132.22 45.99Q132.19 45.96 132.17 45.93Q131.99 45.73 131.79 45.58Q131.49 45.35 131.12 45.2Q130.5 44.96 129.5 44.72Q128.66 44.51 128.16 44.33Q127.66 44.15 127.32 43.82Q127.24 43.74 127.18 43.65Q126.99 43.36 126.99 42.95Q126.99 42.62 127.11 42.35Q127.26 42.01 127.6 41.76Q128.2 41.29 129.4 41.29Q130.02 41.29 130.67 41.49Q130.92 41.56 131.15 41.65Q131.54 41.81 131.89 42.05L132.22 41.28Q131.67 40.9 130.92 40.69Q130.61 40.6 130.28 40.55Q129.84 40.48 129.4 40.48Q128.28 40.48 127.53 40.82Q126.77 41.15 126.41 41.72Q126.25 41.96 126.16 42.22Q126.04 42.58 126.04 42.97Q126.04 43.77 126.44 44.26Q126.46 44.29 126.48 44.31Q126.71 44.57 126.98 44.76Q127.24 44.93 127.53 45.05Q128.14 45.29 129.16 45.55Q130.02 45.75 130.5 45.93Q130.99 46.11 131.32 46.43Q131.4 46.51 131.46 46.6Q131.65 46.89 131.65 47.3Q131.65 47.6 131.54 47.86Q131.39 48.21 131.04 48.47Q130.42 48.92 129.2 48.92Q128.8 48.92 128.41 48.85Q127.95 48.77 127.51 48.61Q126.7 48.3 126.2 47.81L125.83 48.55Q126.33 49.08 127.26 49.41Q127.49 49.49 127.73 49.55ZM143.86 49.35Q144.78 49.73 145.87 49.73Q147.01 49.73 147.96 49.31Q148.14 49.23 148.31 49.14Q148.88 48.82 149.32 48.38Q149.72 47.98 150.02 47.48Q150.18 47.19 150.31 46.89Q150.64 46.07 150.64 45.1Q150.64 44.15 150.31 43.34Q150.19 43.02 150.02 42.73Q149.72 42.23 149.32 41.83Q148.87 41.39 148.31 41.08Q148.13 40.98 147.94 40.9Q147 40.48 145.87 40.48Q144.79 40.48 143.88 40.86Q143.64 40.96 143.42 41.08Q142.77 41.44 142.29 41.95Q141.96 42.3 141.7 42.74Q141.55 42.99 141.44 43.27Q141.09 44.11 141.09 45.1Q141.09 46.11 141.45 46.96Q141.56 47.22 141.7 47.47Q141.95 47.9 142.28 48.25Q142.77 48.77 143.42 49.13Q143.64 49.25 143.86 49.35ZM89.48 45.66Q89 45.14 88.16 44.96Q88.66 44.76 89 44.41Q89.1 44.3 89.18 44.18Q89.22 44.13 89.25 44.08Q89.55 43.58 89.55 42.89Q89.55 42.24 89.26 41.76Q89.06 41.42 88.71 41.17Q87.88 40.56 86.36 40.56L82.43 40.56L82.43 49.65L86.62 49.65Q88.3 49.65 89.17 49.03Q89.51 48.78 89.72 48.45Q90.03 47.93 90.03 47.22Q90.03 46.43 89.67 45.89Q89.61 45.81 89.55 45.73Q89.52 45.7 89.48 45.66ZM115.01 47.26L116.87 45.38L120.58 49.65L121.73 49.65L117.52 44.67L121.46 40.56L120.35 40.56L115.01 46.05L115.01 40.56L114.05 40.56L114.05 49.65L115.01 49.65L115.01 47.26ZM133.13 41.39L136.33 41.39L136.33 49.65L137.29 49.65L137.29 41.39L140.49 41.39L140.49 40.56L133.13 40.56L133.13 41.39ZM156.93 46.73L159.01 49.65L160.07 49.65L157.84 46.53Q158.71 46.25 159.24 45.66Q159.31 45.57 159.38 45.48Q159.45 45.39 159.51 45.3Q159.92 44.61 159.92 43.68Q159.92 42.71 159.49 42.02Q159.27 41.67 158.93 41.39Q157.95 40.56 156.2 40.56L152.8 40.56L152.8 49.65L153.76 49.65L153.76 46.77L156.2 46.77Q156.58 46.77 156.93 46.73ZM168.63 49.65L168.63 48.82L163.16 48.82L163.16 45.44L167.87 45.44L167.87 44.62L163.16 44.62L163.16 41.39L168.44 41.39L168.44 40.56L162.2 40.56L162.2 49.65L168.63 49.65ZM97.82 48.56Q97.08 48.87 96.21 48.87Q95.36 48.87 94.64 48.58Q94.44 48.49 94.25 48.39Q93.8 48.14 93.44 47.78Q93.11 47.45 92.87 47.04Q92.74 46.81 92.65 46.57Q92.37 45.89 92.37 45.1Q92.37 44.32 92.65 43.64Q92.74 43.4 92.87 43.18Q93.12 42.74 93.47 42.41Q93.81 42.07 94.25 41.82Q94.45 41.71 94.66 41.63Q95.37 41.34 96.21 41.34Q97.07 41.34 97.8 41.65Q97.98 41.73 98.16 41.82Q98.6 42.07 98.95 42.42Q99.28 42.75 99.52 43.18Q99.65 43.4 99.74 43.63Q100.02 44.31 100.02 45.1Q100.02 45.9 99.74 46.59Q99.65 46.82 99.52 47.04Q99.29 47.45 98.97 47.77Q98.61 48.13 98.16 48.39Q97.99 48.48 97.82 48.56ZM108.72 48.56Q107.99 48.87 107.12 48.87Q106.27 48.87 105.55 48.58Q105.35 48.49 105.16 48.39Q104.7 48.14 104.35 47.78Q104.02 47.45 103.78 47.04Q103.65 46.81 103.55 46.57Q103.28 45.89 103.28 45.1Q103.28 44.32 103.55 43.64Q103.65 43.4 103.78 43.18Q104.03 42.74 104.37 42.41Q104.72 42.07 105.16 41.82Q105.36 41.71 105.57 41.63Q106.28 41.34 107.12 41.34Q107.98 41.34 108.71 41.65Q108.89 41.73 109.06 41.82Q109.51 42.07 109.85 42.42Q110.19 42.75 110.43 43.18Q110.56 43.4 110.65 43.63Q110.92 44.31 110.92 45.1Q110.92 45.9 110.65 46.59Q110.55 46.82 110.43 47.04Q110.19 47.45 109.87 47.77Q109.52 48.13 109.06 48.39Q108.9 48.48 108.72 48.56ZM147.48 48.56Q146.74 48.87 145.87 48.87Q145.02 48.87 144.3 48.58Q144.1 48.49 143.91 48.39Q143.46 48.14 143.11 47.78Q142.78 47.45 142.53 47.04Q142.4 46.81 142.31 46.57Q142.03 45.89 142.03 45.1Q142.03 44.32 142.31 43.64Q142.4 43.4 142.53 43.18Q142.78 42.74 143.13 42.41Q143.47 42.07 143.91 41.82Q144.11 41.71 144.32 41.63Q145.03 41.34 145.87 41.34Q146.73 41.34 147.46 41.65Q147.64 41.73 147.82 41.82Q148.26 42.07 148.61 42.42Q148.94 42.75 149.18 43.18Q149.31 43.4 149.4 43.63Q149.68 44.31 149.68 45.1Q149.68 45.9 149.4 46.59Q149.31 46.82 149.18 47.04Q148.95 47.45 148.63 47.77Q148.27 48.13 147.82 48.39Q147.65 48.48 147.48 48.56ZM83.39 44.65L83.39 41.35L86.29 41.35Q87.4 41.35 87.99 41.77Q88.22 41.93 88.36 42.15Q88.59 42.5 88.59 43Q88.59 43.49 88.36 43.85Q88.22 44.06 87.99 44.23Q87.4 44.65 86.29 44.65L83.39 44.65ZM158.25 45.35Q157.53 45.95 156.18 45.95L153.76 45.95L153.76 41.39L156.18 41.39Q157.53 41.39 158.25 41.98Q158.44 42.14 158.58 42.33Q158.96 42.87 158.96 43.68Q158.96 44.43 158.61 44.95Q158.46 45.17 158.25 45.35ZM88.45 48.45Q87.83 48.86 86.6 48.86L83.39 48.86L83.39 45.44L86.6 45.44Q88.28 45.44 88.82 46.23Q89.07 46.6 89.07 47.14Q89.07 47.75 88.78 48.13Q88.65 48.31 88.45 48.45Z" fill="#FFFFFF" fill-opacity="1.000000" fill-rule="evenodd"/>
	<line id="Line 1" x1="77.714294" y1="34.135742" x2="283.333344" y2="34.135742" stroke="#FFFFFF" stroke-opacity="0.590000" stroke-width="1.000000"/>
	<rect id="books-stack-of-three 2" width="68.000000" height="68.000000" fill="#FFFFFF" fill-opacity="0"/>
	<g clip-path="url(#clip6_286)">
		<path id="Vector" d="M63.14 24.13C62.87 22.06 62.83 18.5 64.75 17.3C64.78 17.28 64.81 17.25 64.84 17.22C66.41 16.72 67.5 16.02 66.64 15.07L43.49 8.09L5.99 13.3C5.99 13.3 1.7 13.92 2.08 20.59C2.29 24.22 3.43 26 4.43 26.88L1.35 27.81C0.5 28.75 1.58 29.46 3.15 29.96C3.18 29.99 3.21 30.02 3.24 30.04C5.16 31.24 5.12 34.8 4.85 36.87C-2.05 38.82 0.43 39.46 0.43 39.46L1.94 39.83C0.88 40.79 -0.18 42.61 0.02 46.07C0.4 52.74 3.93 53.2 3.93 53.2L28.47 61.17L65.5 52.2C65.5 52.2 67.97 51.56 61.08 49.6C60.8 47.54 60.76 43.98 62.69 42.78C62.72 42.76 62.75 42.73 62.78 42.7C64.35 42.2 65.43 41.49 64.58 40.55L62.97 40.06C64.04 39.41 65.66 37.72 65.91 33.33C66.08 30.3 65.29 28.53 64.38 27.49L67.56 26.72C67.56 26.72 70.04 26.08 63.14 24.13ZM32.17 24.04L38.4 22.76L59.44 18.44L62.58 17.79C61.57 19.62 61.62 22.13 61.78 23.75C61.82 24.11 61.86 24.44 61.9 24.7L58.47 25.55L31.91 32.16L32.17 24.04ZM5.42 30.53L8.55 31.18L28.76 35.33L30.53 35.69L35.82 36.78L36.08 44.9L8.78 38.11L6.09 37.44C6.13 37.19 6.17 36.85 6.21 36.49C6.38 34.87 6.42 32.36 5.42 30.53ZM4.2 20.27C4.16 18.49 4.48 17.21 5.11 16.56C5.52 16.14 6 16.05 6.33 16.05C6.5 16.05 6.63 16.08 6.64 16.08L22.79 21.34L30.85 23.97L30.59 32.15L7.98 25.81L6.78 25.47C6.74 25.46 6.68 25.45 6.64 25.45C6.54 25.45 4.31 25.24 4.2 20.27ZM28.52 57.63L4.72 50.96C4.68 50.94 4.62 50.93 4.57 50.93C4.48 50.93 2.24 50.72 2.13 45.75C2.09 43.97 2.41 42.69 3.05 42.04C3.46 41.62 3.94 41.53 4.26 41.53C4.44 41.53 4.56 41.56 4.57 41.56L28.79 49.45L28.52 57.63ZM59.72 49.23C59.75 49.59 59.8 49.92 59.84 50.18L29.84 57.64L30.1 49.52L36.51 48.2L37.46 48.43L41.01 47.28L57.37 43.92L60.51 43.27C59.51 45.1 59.55 47.61 59.72 49.23ZM61.37 38.19C61.31 38.19 61.26 38.2 61.21 38.22L58.95 38.85L37.4 44.89L37.14 36.71L44.21 34.41L61.32 28.83C61.32 28.83 62.22 28.63 62.88 29.3C63.52 29.95 63.84 31.23 63.8 33.01C63.69 37.98 61.45 38.18 61.37 38.19Z" fill="#FFFFFF" fill-opacity="1.000000" fill-rule="nonzero"/>
	</g>
</svg>
